<svg width="211" height="211" viewBox="0 0 211 211" fill="none" xmlns="http://www.w3.org/2000/svg">
<path d="M151.66 79.8797C151.66 74.621 150.477 69.4298 148.2 64.6897C145.955 59.9976 142.781 55.8098 138.87 52.3797C130.445 45.0362 119.616 41.0433 108.44 41.1597H100.66C89.4852 41.0471 78.6574 45.0394 70.2303 52.3797C66.3257 55.8153 63.1527 60.0018 60.9003 64.6897C58.6264 69.4305 57.4474 74.6218 57.4503 79.8797C57.5404 94.1316 56.5745 108.371 54.5603 122.48C53.8958 127.359 52.9272 132.191 51.6603 136.95L51.0303 139.08L52.8903 140.3C53.4603 140.67 55.7103 141.88 60.6203 141.88C62.7051 141.866 64.7853 141.682 66.8403 141.33C66.8296 144.539 66.4164 147.734 65.6103 150.84L64.1803 156.59L69.6503 154.31C73.1695 152.8 76.6075 151.108 79.9503 149.24C80.7303 150.197 81.5651 151.109 82.4503 151.97C86.9476 156.328 92.6447 159.242 98.8103 160.34C99.3903 161.34 99.9303 162.2 100.41 163.02L102.07 165.79L104.62 169.97L107.16 165.79C107.64 165 108.16 164.08 108.82 163.02L110.44 160.31C116.55 159.196 122.192 156.293 126.65 151.97C127.539 151.109 128.377 150.197 129.16 149.24C132.502 151.11 135.94 152.802 139.46 154.31L144.93 156.59L143.49 150.84C142.686 147.733 142.277 144.538 142.27 141.33C144.322 141.682 146.399 141.866 148.48 141.88C153.4 141.88 155.65 140.67 156.22 140.3L158.13 139.04L157.42 136.87C157.36 136.7 151.66 118.86 151.66 79.8797ZM85.1403 146.13C83.8289 144.626 82.7072 142.967 81.8003 141.19C80.5584 138.761 79.7464 136.136 79.4003 133.43C81.0603 135.13 82.7903 137.09 84.5703 139.3C85.1403 140 85.7003 140.73 86.2803 141.48C86.8603 142.23 87.5603 143.18 88.1903 144.04C90.2903 146.93 92.2803 149.9 94.0903 152.71C90.657 151.205 87.6002 148.958 85.1403 146.13ZM127.29 141.19C126.383 142.967 125.262 144.626 123.95 146.13C121.536 148.903 118.546 151.117 115.19 152.62C116.96 149.86 118.92 146.95 120.98 144.1C121.62 143.22 122.28 142.34 122.98 141.48C123.68 140.62 124.09 140.04 124.64 139.36C126.38 137.19 128.08 135.26 129.71 133.58C129.333 136.233 128.515 138.806 127.29 141.19ZM129.39 125.68C125.952 128.676 122.804 131.991 119.99 135.58C119.41 136.31 118.81 137.07 118.21 137.85C117.61 138.63 116.97 139.5 116.36 140.33C112.71 145.33 109.42 150.5 106.8 154.79L104.94 157.86C104.83 158.06 104.71 158.25 104.6 158.44L104.26 157.87C103.69 156.87 103.07 155.87 102.4 154.8C99.7703 150.49 96.4603 145.28 92.7903 140.26C92.1903 139.45 91.6003 138.65 90.9903 137.85C90.3803 137.05 89.7503 136.26 89.1503 135.51C86.3192 131.907 83.1516 128.582 79.6903 125.58C78.8203 124.85 77.9603 124.18 77.1003 123.58C76.2403 122.98 75.3403 122.4 74.4803 121.91C73.8303 121.55 73.1903 121.22 72.5603 120.91C73.7365 118.87 75.1061 116.948 76.6503 115.17C77.5945 114.058 78.5958 112.997 79.6503 111.99C80.7439 110.811 82.0544 109.853 83.5103 109.17C87.0303 108.17 89.3103 105.92 91.3303 103.96C92.0703 103.24 92.7703 102.56 93.5203 101.96L93.6803 101.83C94.4603 101.19 95.2603 100.47 96.1203 99.6997C98.6203 97.4597 102.04 94.3897 104.51 94.3897H104.73C107.19 94.3897 110.62 97.4597 113.12 99.7097C113.98 100.47 114.78 101.19 115.56 101.83L115.82 102.05C116.53 102.64 117.2 103.29 117.91 103.98C119.91 105.98 122.21 108.16 125.72 109.19C126.968 109.753 128.101 110.543 129.06 111.52C130.306 112.665 131.475 113.891 132.56 115.19C134.11 116.965 135.483 118.888 136.66 120.93C135.99 121.23 135.31 121.58 134.66 121.93C133.79 122.43 132.92 122.99 132.03 123.62C131.14 124.25 130.29 124.97 129.41 125.68H129.39ZM148.48 135.97C145.693 135.918 142.919 135.56 140.21 134.9L137.21 134.23L136.62 137.23C136.165 140.293 136.165 143.407 136.62 146.47C135.36 145.85 133.94 145.11 132.45 144.29C134.691 140.028 135.858 135.284 135.85 130.47C135.85 129.75 135.85 129.03 135.77 128.32C137.299 127.218 138.985 126.352 140.77 125.75C141.516 125.512 142.164 125.036 142.614 124.395C143.064 123.753 143.291 122.982 143.26 122.2C143.26 119.2 139.62 114.37 137.47 111.78C135.32 109.19 131.07 104.58 127.41 103.5C125.31 102.89 123.81 101.43 122.07 99.7397C121.22 98.9097 120.34 98.0597 119.33 97.2297C118.66 96.6897 117.91 96.0197 117.11 95.2997C113.71 92.2997 109.48 88.4597 104.74 88.4597H104.52C99.7703 88.4597 95.5203 92.2497 92.1503 95.2997C91.3503 96.0197 90.6003 96.6897 89.9303 97.2297C88.9303 98.0597 88.0303 98.9097 87.1803 99.7397C85.4503 101.43 83.9503 102.89 81.8503 103.5C78.1903 104.58 73.9803 109.15 71.7903 111.78C69.6003 114.41 66.0303 119.18 66.0003 122.2C65.9675 122.981 66.1925 123.752 66.6406 124.394C67.0886 125.035 67.735 125.512 68.4803 125.75C70.2164 126.333 71.8572 127.169 73.3503 128.23C73.2903 128.97 73.2603 129.72 73.2603 130.47C73.251 135.286 74.4218 140.031 76.6703 144.29C75.1803 145.11 73.7603 145.85 72.5003 146.47C72.9437 143.406 72.9437 140.294 72.5003 137.23L71.9003 134.23L68.9003 134.9C66.1879 135.559 63.4112 135.918 60.6203 135.97C59.781 135.973 58.9424 135.92 58.1103 135.81C58.7003 133.33 59.5603 129.25 60.4203 123.6C62.5032 109.134 63.506 94.534 63.4203 79.9197C63.4203 61.8497 80.1303 47.1497 100.67 47.1497H108.45C129 47.1497 145.71 61.8497 145.71 79.9197C145.71 111.25 149.29 129.18 150.95 135.82C150.131 135.921 149.306 135.971 148.48 135.97Z" fill="white"/>
<path d="M113.42 105.57L110.65 106.69L107.89 107.8L111.66 117.14L114.42 116.03L117.18 114.92L114.34 107.87L113.42 105.57Z" fill="white"/>
<path d="M98.54 106.67L95.8201 105.57L94.92 107.81L92.0601 114.92L94.8201 116.03L97.58 117.14L101.35 107.8L98.59 106.69L98.54 106.67Z" fill="white"/>
<path d="M138.41 76.9698C127.92 76.5698 122.1 79.9698 119.41 82.2198C118.907 82.5982 118.451 83.0345 118.05 83.5198C117.74 83.8698 117.57 84.0998 117.53 84.1498L117.29 84.5298C116.814 85.3453 116.525 86.2568 116.445 87.1979C116.366 88.1389 116.497 89.0859 116.83 89.9698C117.36 91.196 118.248 92.2336 119.377 92.9472C120.507 93.6608 121.825 94.0172 123.16 93.9698C124.208 93.9677 125.246 93.7675 126.22 93.3798C130.06 91.8698 132.09 87.8699 130.75 84.4799C130.437 83.6885 129.96 82.9726 129.35 82.3798C132.248 81.6995 135.227 81.4269 138.2 81.5698C138.793 81.5593 139.36 81.3218 139.784 80.9062C140.207 80.4905 140.455 79.9284 140.477 79.3353C140.499 78.7423 140.293 78.1635 139.901 77.7179C139.509 77.2723 138.961 76.9938 138.37 76.9398L138.41 76.9698ZM124.08 87.8699C123.801 87.9859 123.502 88.047 123.2 88.0499C123.059 88.0684 122.915 88.0566 122.779 88.0152C122.643 87.9738 122.517 87.9038 122.41 87.8099C122.41 87.6799 122.67 86.9998 123.59 86.6398C123.869 86.5228 124.168 86.4617 124.47 86.4598C124.75 86.4309 125.03 86.5135 125.25 86.6898C125.29 86.8198 125 87.4999 124.08 87.8599V87.8699Z" fill="white"/>
<path d="M91.6704 83.4596C91.5051 83.222 91.3212 82.998 91.1204 82.7896C90.7568 82.351 90.3479 81.9521 89.9004 81.5996C88.9344 80.7792 87.8854 80.0619 86.7704 79.4596C82.4904 77.1096 77.1104 76.0396 70.7704 76.2796C70.1788 76.334 69.6307 76.6133 69.239 77.0599C68.8473 77.5065 68.6418 78.0863 68.6648 78.6799C68.6879 79.2735 68.9378 79.8356 69.363 80.2505C69.7882 80.6653 70.3564 80.9012 70.9504 80.9096C73.9238 80.7611 76.9033 81.0338 79.8004 81.7196C79.1865 82.3114 78.7058 83.0273 78.3904 83.8196C77.0504 87.2096 79.0904 91.2096 82.9204 92.7196C83.8979 93.1064 84.9392 93.3065 85.9904 93.3096C87.324 93.3563 88.6407 92.9995 89.7683 92.2859C90.8959 91.5722 91.7819 90.5349 92.3104 89.3096C92.6481 88.4267 92.7821 87.4789 92.7024 86.537C92.6228 85.595 92.3315 84.6833 91.8504 83.8696C91.8304 83.7096 91.7504 83.5796 91.6704 83.4596ZM86.8204 87.0996C86.7138 87.1904 86.5892 87.2578 86.4548 87.2975C86.3204 87.3371 86.1793 87.348 86.0404 87.3296C85.7382 87.3267 85.4394 87.2656 85.1604 87.1496C84.2404 86.7896 83.9504 86.1496 83.9904 85.9696C84.0971 85.8788 84.2216 85.8113 84.3559 85.7717C84.4903 85.7321 84.6315 85.7212 84.7704 85.7396C85.0725 85.7425 85.3713 85.8036 85.6504 85.9196C86.5704 86.2796 86.8604 86.9696 86.8204 87.0996Z" fill="white"/>
</svg>
