<svg width="211" height="212" viewBox="0 0 211 212" fill="none" xmlns="http://www.w3.org/2000/svg">
<path d="M142.36 102.05C130.99 101.62 124.69 105.29 121.78 107.74C121.233 108.147 120.739 108.621 120.31 109.15C120.108 109.367 119.918 109.594 119.74 109.83C119.65 109.97 119.57 110.11 119.49 110.25C118.97 111.132 118.656 112.119 118.569 113.138C118.483 114.158 118.626 115.184 118.99 116.14C119.563 117.468 120.523 118.591 121.745 119.364C122.968 120.137 124.395 120.522 125.84 120.47C126.977 120.471 128.104 120.254 129.16 119.83C133.32 118.19 135.52 113.83 134.06 110.19C133.725 109.332 133.206 108.557 132.54 107.92C135.681 107.187 138.907 106.887 142.13 107.03C142.474 107.071 142.823 107.041 143.155 106.94C143.487 106.84 143.794 106.672 144.058 106.446C144.321 106.221 144.535 105.944 144.686 105.632C144.837 105.32 144.922 104.98 144.935 104.633C144.948 104.287 144.89 103.941 144.763 103.619C144.636 103.296 144.443 103.003 144.198 102.759C143.952 102.514 143.658 102.323 143.335 102.198C143.012 102.072 142.666 102.015 142.32 102.03L142.36 102.05ZM126.83 113.86C126.527 113.981 126.205 114.045 125.88 114.05C125.728 114.067 125.575 114.054 125.429 114.011C125.283 113.968 125.147 113.897 125.03 113.8C125.03 113.66 125.3 112.92 126.3 112.53C126.617 112.4 126.957 112.336 127.3 112.34C127.451 112.323 127.604 112.336 127.75 112.379C127.896 112.422 128.032 112.494 128.15 112.59C128.14 112.73 127.83 113.47 126.83 113.86Z" fill="white"/>
<path d="M65.5096 104.65C65.5212 104.979 65.5977 105.303 65.7349 105.603C65.872 105.902 66.0669 106.172 66.3085 106.396C66.5502 106.62 66.8337 106.794 67.1428 106.908C67.4518 107.022 67.7804 107.073 68.1096 107.06C71.3319 106.918 74.5585 107.217 77.6996 107.95C77.0333 108.589 76.5116 109.363 76.1696 110.22C74.7196 113.89 76.9196 118.22 81.0796 119.86C82.135 120.284 83.2621 120.502 84.3996 120.5C85.8446 120.552 87.2716 120.166 88.4939 119.394C89.7161 118.621 90.6766 117.498 91.2496 116.17C91.6127 115.214 91.7564 114.188 91.6698 113.168C91.5833 112.149 91.2688 111.162 90.7496 110.28C90.6696 110.14 90.5796 110 90.4896 109.86C90.4896 109.81 90.2696 109.56 89.9296 109.18C89.4976 108.653 89.0041 108.18 88.4596 107.77C85.5496 105.32 79.2496 101.65 67.8796 102.08C67.228 102.116 66.616 102.405 66.1736 102.885C65.7312 103.364 65.493 103.998 65.5096 104.65ZM82.1696 112.59C82.2874 112.494 82.4233 112.422 82.5693 112.379C82.7153 112.336 82.8684 112.323 83.0196 112.34C83.3625 112.334 83.703 112.398 84.0196 112.53C85.0196 112.92 85.3296 113.66 85.2996 113.8C85.1818 113.896 85.0459 113.968 84.8999 114.011C84.7539 114.054 84.6008 114.067 84.4496 114.05C84.124 114.045 83.8021 113.981 83.4996 113.86C82.4496 113.47 82.1396 112.73 82.1696 112.59Z" fill="white"/>
<path d="M152.72 62V125.74C152.72 135.15 150.98 142.16 147.38 147.17C144.25 151.52 140.13 153.97 135.76 156.56C135.26 156.85 134.76 157.17 134.26 157.47C133.633 160.437 133.057 163.437 132.53 166.47L134.82 165.81C136.26 164.81 137.82 163.87 139.49 162.89C148.65 157.46 160.05 150.69 160.05 125.77V54.22C160.05 53.0809 159.746 51.9625 159.169 50.9806C158.591 49.9987 157.762 49.1889 156.767 48.6351C155.771 48.0813 154.646 47.8037 153.507 47.8309C152.369 47.8582 151.258 48.1893 150.29 48.79L116.29 69.79C109.211 67.9499 101.779 67.9499 94.7 69.79L64.64 51.17C63.29 50.3317 61.7403 49.8698 60.1516 49.8321C58.5629 49.7943 56.993 50.1822 55.6047 50.9554C54.2164 51.7286 53.0601 52.8591 52.2557 54.2296C51.4514 55.6001 51.0282 57.1609 51.03 58.75V125.75C51.03 150.67 62.43 157.44 71.58 162.87C73.01 163.72 74.38 164.54 75.66 165.39C74.7774 162.3 74.2836 159.112 74.19 155.9C70.25 153.54 66.55 151.15 63.7 147.18C60.1 142.18 58.35 135.18 58.35 125.75V62C58.3494 61.3917 58.5114 60.7943 58.8194 60.2697C59.1274 59.7452 59.5701 59.3125 60.1016 59.0167C60.6331 58.7208 61.234 58.5726 61.8421 58.5872C62.4503 58.6018 63.0434 58.7789 63.56 59.1L93.64 77.76L95.21 77.29C101.958 75.2655 109.152 75.2655 115.9 77.29L117.48 77.76L147.55 59.12C148.064 58.81 148.652 58.6413 149.252 58.6311C149.853 58.6208 150.445 58.7693 150.97 59.0616C151.494 59.3538 151.933 59.7795 152.24 60.2955C152.547 60.8115 152.713 61.3995 152.72 62Z" fill="white"/>
<path d="M65.6904 69.29V90.18C70.4474 85.9669 75.4821 82.0782 80.7604 78.54L65.6904 69.29Z" fill="white"/>
<path d="M145.23 69.29L130.16 78.54C135.438 82.0782 140.473 85.9669 145.23 90.18V69.29Z" fill="white"/>
<path d="M128.91 167.57L132.91 166.35L135.14 157.27C125.57 161.61 114.8 161.45 104.46 161.19C95.7499 160.97 82.2399 161.05 74.4599 155.94H74.1499C74.1499 155.94 72.1499 163 72.8199 163.71C88.8199 172.83 117.3 169.59 128.26 167.89C128.48 167.77 128.64 167.65 128.91 167.57Z" fill="white"/>
<path d="M105.44 134.72C105.302 134.959 105.104 135.157 104.865 135.295C104.626 135.433 104.356 135.506 104.08 135.506C103.804 135.506 103.533 135.433 103.295 135.295C103.056 135.157 102.858 134.959 102.72 134.72L101.05 131.83L98.0498 126.58H110.14L107.14 131.83L105.44 134.72Z" fill="white"/>
<path d="M103.2 135.42C103.2 135.42 97.8895 146.04 87.2695 147.81Z" fill="white"/>
<path d="M104.96 135.42C104.96 135.42 110.27 146.04 120.89 147.81Z" fill="white"/>
</svg>
