<svg id="Camada_1" data-name="Camada 1" xmlns="http://www.w3.org/2000/svg" viewBox="0 0 968.94 947.15"><defs><style>.cls-1{fill:#eef3f6;}.cls-2{fill:#2ec8ec;}</style></defs><title>logo</title><path class="cls-1" d="M239.65,538.82c-1.14,34.19,4.64,66,14.93,97.08a292.61,292.61,0,0,0,48.57,89.81,301.64,301.64,0,0,0,92.77,78.67,308.92,308.92,0,0,0,96.91,33.4,295,295,0,0,0,67.48,3.58A303.11,303.11,0,0,0,734,773.57c2.47-2,4.42-3.57,7.83-.26,37,36,73.35,72.69,110,109.08,3,3,3.61,4.27-.15,7.71-24.7,22.65-51.76,42-80.55,59a459.25,459.25,0,0,1-72.46,34.3,483,483,0,0,1-82.85,22.79,435.58,435.58,0,0,1-43.28,5.5c-15.07,1.24-30.13,2-45.24,1.89a480.16,480.16,0,0,1-63.36-4.85A462.44,462.44,0,0,1,378,988.49a480.85,480.85,0,0,1-157.82-90,486.87,486.87,0,0,1-95.94-113,466.57,466.57,0,0,1-39.64-82A476.8,476.8,0,0,1,63,623.9c-2.54-14-4.16-28.11-5.51-42.28a442.93,442.93,0,0,1-1.73-54.25,477.45,477.45,0,0,1,4.65-53.87A460.68,460.68,0,0,1,81.5,385.72a471.24,471.24,0,0,1,47.08-97.66,559.89,559.89,0,0,1,35.87-49.52c5.79-7.25,12.35-13.88,18.58-20.77a392,392,0,0,1,36.1-35,474.82,474.82,0,0,1,72.42-51.62A494.09,494.09,0,0,1,361.67,97.7a462.29,462.29,0,0,1,77.89-22.07c14.3-2.73,28.69-4.7,43.1-6.68,4.08-.56,8.24-.69,12.36-1a420.73,420.73,0,0,1,55.34-1C600.3,69.24,649,78.46,696,95.78a473.31,473.31,0,0,1,113.62,60.4,463.47,463.47,0,0,1,59.78,51c2.59,2.62,4,4.07.07,7.25-15.29,12.45-30.22,25.33-45.24,38.12-14.26,12.14-28.42,24.4-42.67,36.55-10.6,9-21.34,17.89-31.86,27-2.2,1.91-3.23,1-4.93-.46a332.21,332.21,0,0,0-33.38-25.88A306.36,306.36,0,0,0,600.71,244a298.52,298.52,0,0,0-77.29-5.05,302.12,302.12,0,0,0-105.15,25.81,297.3,297.3,0,0,0-67,40.92A303.38,303.38,0,0,0,245,480.36C240.88,500,238.49,520,239.65,538.82Z" transform="translate(-55.53 -66.42)"/><path class="cls-2" d="M766.91,463.85q125.21,0,250.41-.11c4.78,0,6,1.26,6.21,6a739.6,739.6,0,0,1-.28,79.91c-4.37,74.56-16.81,147.39-48,216-15.27,33.6-35,64.26-61,90.76-2.9,3-4.57,3.41-8,.53q-67.38-56.91-135.07-113.44c-3.59-3-2.56-3.94.63-6.09,29.93-20.16,45.72-48,45.42-84.48-.06-7.38-.13-7.38-7.39-7.38q-146.7,0-293.4.11c-4.78,0-6.05-1.1-6-6q.28-85.22,0-170.44c0-4.42,1.1-5.52,5.51-5.51Q641.46,464,766.91,463.85Z" transform="translate(-55.53 -66.42)"/></svg>