<svg width="211" height="211" viewBox="0 0 211 211" fill="none" xmlns="http://www.w3.org/2000/svg">
<path d="M158.03 171.56V166.79C157.835 155.574 156.87 144.384 155.14 133.3C153.339 121.486 150.487 109.857 146.62 98.5499C141.7 84.3599 135.83 72.5499 128.67 62.5499C123.273 54.7245 116.495 47.9472 108.67 42.5499L106.98 41.4199L105.28 42.5499C97.4567 47.95 90.68 54.7267 85.2799 62.5499C78.1199 72.5499 72.2799 84.3399 67.3399 98.5499C63.4736 109.858 60.6191 121.487 58.8099 133.3C57.0884 144.385 56.1262 155.574 55.9299 166.79C55.9299 167.18 55.9299 167.55 55.9299 167.94C55.9299 168.13 55.9299 168.32 55.9299 168.52V171.52L158.03 171.56ZM66.1699 165.48L71.5099 155.24L71.6799 154.89C73.5799 150.83 80.6799 136.89 91.4899 127.29L92.2299 126.64L93.0699 122.82L95.4399 124.82L106.98 121.1L118.52 124.82L120.88 122.82L121.72 126.64L122.47 127.29C133.32 136.85 140.37 150.83 142.28 154.89L142.44 155.24L147.78 165.48H66.1699ZM73.2799 139.56C73.8385 134.4 74.8968 129.306 76.4399 124.35C78.6879 116.873 82.9625 110.165 88.7899 104.97L96.5699 115.97L97.2899 107.68C97.3799 106.68 97.4599 105.68 97.5499 104.76C97.7099 102.85 97.8699 101.02 98.0199 99.2099L101.52 97.9299C102.02 98.9299 102.52 99.9299 103.06 100.93C103.45 101.68 103.84 102.44 104.23 103.22L106.68 108.04L103.59 114.57L102.94 115.93L96.7399 117.93L89.2599 111.67L86.6899 123.35C81.5467 128.167 77.0311 133.613 73.2499 139.56H73.2799ZM107.28 108.09L109.72 103.27C110.113 102.49 110.503 101.73 110.89 100.99C111.42 99.9899 111.89 98.9899 112.43 97.9899L115.93 99.2699C116.08 101.08 116.24 102.91 116.41 104.82C116.49 105.77 116.58 106.74 116.66 107.74L117.38 116.03L125.16 105.03C131 110.218 135.288 116.923 137.55 124.4C139.09 129.356 140.145 134.45 140.7 139.61C136.922 133.679 132.41 128.249 127.27 123.45L124.69 111.77L117.16 117.97L110.95 115.97L110.31 114.61L107.28 108.09ZM64.8499 134.25C66.5973 122.793 69.3649 111.514 73.1199 100.55C77.8399 86.9099 83.4499 75.6499 90.2599 66.1099C91.7333 64.0633 93.2299 62.1332 94.7499 60.3199C96.6711 60.1539 98.4678 59.2996 99.8091 57.9142C101.15 56.5288 101.946 54.7055 102.05 52.7799C103.643 51.3573 105.312 50.022 107.05 48.7799C108.786 50.0244 110.455 51.3596 112.05 52.7799C112.154 54.7071 112.951 56.5316 114.295 57.9173C115.638 59.303 117.437 60.1562 119.36 60.3199C120.88 62.1266 122.373 64.0566 123.84 66.1099C130.66 75.6499 136.27 86.9099 140.99 100.55C144.737 111.516 147.501 122.794 149.25 134.25C150.867 144.587 151.795 155.02 152.03 165.48H149.72L148.28 153.48C148.06 151.6 147.87 149.48 147.68 147.29C147.04 140.11 146.25 131.16 143.42 122.48C140.04 112.11 134.49 104.15 126.42 98.1499L123.92 96.2799L122.07 98.8999C122.01 98.2099 121.96 97.5199 121.9 96.8299L121.75 94.8299L109.37 90.2999L108.03 92.8699C107.67 93.6499 107.3 94.4199 106.91 95.1999C106.52 94.4199 106.14 93.6499 105.78 92.8699L104.6 90.3399L92.2199 94.8699L92.0699 96.8699C92.0199 97.5599 91.9599 98.2499 91.9099 98.9399L90.0499 96.3199L87.5499 98.1899C79.5499 104.19 73.9599 112.19 70.5499 122.52C67.7299 131.2 66.9299 140.15 66.2999 147.33C66.0999 149.55 65.9199 151.64 65.6899 153.52L64.2599 165.52H62.0299C62.266 155.047 63.188 144.602 64.7899 134.25H64.8499Z" fill="white"/>
</svg>
