<svg width="211" height="211" viewBox="0 0 211 211" fill="none" xmlns="http://www.w3.org/2000/svg">
<path d="M92.4302 143.44L92.5402 145.58C92.7207 148.098 93.3189 150.568 94.3102 152.89C96.6002 158.11 100.74 160.99 105.97 160.99C111.2 160.99 115.33 158.11 117.62 152.89C118.618 150.57 119.219 148.099 119.4 145.58L119.5 143.44L117.5 142.53C113.43 140.66 106.9 140.09 106.17 140.04H105.92H105.67C104.93 140.09 98.4102 140.66 94.3402 142.53L92.4302 143.44ZM105.97 146.44C108.233 146.652 110.476 147.036 112.68 147.59C112.468 148.542 112.17 149.472 111.79 150.37C110.98 152.2 109.5 154.65 105.97 154.65C104.3 154.65 101.89 154.22 100.21 150.49C99.7744 149.562 99.4391 148.59 99.2102 147.59C101.44 147.021 103.71 146.627 106 146.41L105.97 146.44Z" fill="white"/>
<path d="M85.5703 69.5799C85.5703 69.5799 75.8103 62.4199 65.7003 58.4399C65.7003 58.4399 63.7903 74.0299 67.2703 81.6699C67.2703 81.6699 77.3803 72.9199 85.5703 69.5799Z" fill="white"/>
<path d="M145.94 58.4399C135.83 62.4399 126.07 69.5799 126.07 69.5799C134.26 72.9199 144.37 81.6699 144.37 81.6699C147.86 73.9999 145.94 58.4399 145.94 58.4399Z" fill="white"/>
<path d="M49.5499 128.48C47.7599 136.65 52.7899 146.92 52.7899 146.92C52.7899 146.92 55.5799 140.85 58.6799 137.92C63.1499 145.67 71.6799 150.1 72.1099 150.31L72.8799 150.7L73.7399 150.65C77.341 150.547 80.923 151.208 84.2499 152.59C84.7035 154.505 84.842 156.481 84.6599 158.44C84.3647 159.814 84.385 161.237 84.7193 162.602C85.0536 163.967 85.6932 165.238 86.59 166.32C89.76 170.14 96.0999 171.99 105.97 171.99C115.84 171.99 122.17 170.14 125.34 166.32C126.237 165.238 126.876 163.967 127.211 162.602C127.545 161.237 127.565 159.814 127.27 158.44C127.087 156.429 127.236 154.402 127.71 152.44C130.944 151.134 134.414 150.514 137.9 150.62L138.76 150.67L139.53 150.28C139.95 150.07 148.53 145.64 152.97 137.89C156.06 140.81 158.85 146.89 158.85 146.89C158.85 146.89 163.85 136.62 162.1 128.45C165.76 130.25 172.21 139.81 172.21 139.81L172.84 131.12C172.91 130.2 174.36 108.36 161.41 95.9699C157.17 91.9099 154.99 87.8999 155.09 84.3799C155.101 83.157 155.447 81.9604 156.09 80.9199L156.71 80.1499L156.79 79.1499C156.79 78.9199 157.24 73.4599 157.22 66.8799C157.22 57.7699 156.29 51.1999 154.56 47.3599L153.56 45.1899L151.2 45.5099C150.59 45.5899 136.45 47.6399 120.68 59.5099C110.823 57.9766 100.787 57.9766 90.9299 59.5099C75.1499 47.6799 61.0099 45.6299 60.4099 45.5099L58.0499 45.1899L57.0499 47.3599C55.3199 51.1999 54.4199 57.7699 54.3899 66.8799C54.3899 73.4599 54.7899 78.8799 54.8099 79.1499L54.8899 80.1499L55.5199 80.9199C56.1657 81.9591 56.5117 83.1565 56.5199 84.3799C56.6299 87.8999 54.4399 91.9099 50.1999 95.9699C37.2599 108.36 38.6999 130.2 38.7699 131.12L39.4099 139.81C39.4099 139.81 45.8799 130.28 49.5499 128.48ZM54.6399 100.6C60.2999 95.1899 63.0899 89.6699 62.9199 84.2099C62.8666 81.9841 62.2545 79.8074 61.1399 77.8799C60.7399 72.1499 60.3399 59.3499 62.1399 52.3899C71.6291 54.8907 80.5028 59.3156 88.2099 65.3899L89.3599 66.2799L90.7899 65.9899C100.767 64.2832 110.962 64.2832 120.94 65.9899L122.36 66.2799L123.51 65.3899C131.217 59.3156 140.091 54.8907 149.58 52.3899C151.34 59.3899 150.95 72.1499 150.58 77.8799C149.469 79.8085 148.861 81.985 148.81 84.2099C148.64 89.6699 151.43 95.2099 157.09 100.6C163.75 106.98 165.81 116.86 166.4 123.54C162.601 121.178 158.06 120.316 153.66 121.12C153.66 121.12 156.14 127.24 155.93 131.96C155.159 131.305 154.344 130.703 153.49 130.16L150.03 128.06C150.03 128.06 146.3 139.55 137.4 144.27C134.773 144.238 132.153 144.557 129.61 145.22C130.16 143.37 130.74 141.64 131.25 140.22L131.8 138.7L130.91 137.36C128.458 133.525 126.292 129.514 124.43 125.36C123.601 123.504 122.874 121.604 122.25 119.67C122.967 119.84 123.703 119.924 124.44 119.92C125.772 119.919 127.093 119.664 128.33 119.17C130.495 118.343 132.312 116.801 133.48 114.8C134.073 113.791 134.433 112.662 134.533 111.496C134.634 110.329 134.472 109.156 134.06 108.06C133.546 106.784 132.692 105.674 131.59 104.85H145.96V98.4799H129.73C126.81 98.3958 123.907 98.9593 121.23 100.13C118.99 101.172 117.146 102.907 115.97 105.08C113.23 110.2 114.08 117.89 118.52 127.94C120.306 131.926 122.357 135.788 124.66 139.5C123.28 143.5 119.98 154.01 121.01 159.56C121.136 160.014 121.151 160.492 121.053 160.953C120.956 161.414 120.749 161.845 120.45 162.21C118.67 164.35 113.39 165.58 105.97 165.58C98.5499 165.58 93.2699 164.35 91.4899 162.21C91.1887 161.847 90.9804 161.416 90.8828 160.954C90.7852 160.492 90.8014 160.014 90.9299 159.56C91.9299 154.01 88.66 143.56 87.28 139.5C89.5762 135.807 91.624 131.965 93.4099 128C97.8499 117.95 98.7099 110.26 95.9599 105.14C94.7901 102.963 92.9439 101.226 90.6999 100.19C88.0235 99.018 85.1204 98.4544 82.1999 98.5399H66.0499V104.91H80.5799C79.4782 105.734 78.6237 106.844 78.1099 108.12C77.698 109.216 77.5363 110.389 77.6366 111.556C77.737 112.722 78.0969 113.851 78.6899 114.86C79.858 116.861 81.6752 118.403 83.84 119.23C85.0773 119.724 86.3974 119.979 87.7299 119.98C88.4021 119.98 89.0724 119.909 89.7299 119.77C89.1105 121.665 88.3963 123.527 87.59 125.35C85.7203 129.508 83.5408 133.519 81.0699 137.35L80.1799 138.69L80.7399 140.21C81.2599 141.62 81.8399 143.38 82.3999 145.26C79.7587 144.556 77.033 144.22 74.2999 144.26C65.3999 139.54 61.6699 128.05 61.6699 128.05L58.2099 130.15C57.3562 130.693 56.5409 131.295 55.7699 131.95C55.5499 127.23 58.0399 121.11 58.0399 121.11C53.6368 120.303 49.0911 121.166 45.2899 123.53C45.9199 116.86 47.9999 107 54.6399 100.6ZM125.86 113.16C125.384 113.356 124.875 113.457 124.36 113.46C124.01 113.502 123.654 113.447 123.333 113.301C123.012 113.154 122.738 112.922 122.54 112.63C122.25 111.89 123.08 110.57 124.6 109.98C125.073 109.786 125.579 109.684 126.09 109.68C126.442 109.638 126.798 109.693 127.121 109.84C127.443 109.986 127.72 110.218 127.92 110.51C128.21 111.24 127.37 112.56 125.86 113.16ZM84.1699 110.51C84.3677 110.218 84.6422 109.986 84.9633 109.839C85.2844 109.693 85.6396 109.638 85.9899 109.68C86.5046 109.683 87.0139 109.784 87.4899 109.98C88.9999 110.57 89.8399 111.89 89.5499 112.63C89.3521 112.922 89.0776 113.154 88.7566 113.301C88.4355 113.447 88.0802 113.502 87.7299 113.46C87.2153 113.457 86.7059 113.356 86.2299 113.16C85.454 112.877 84.7956 112.342 84.3599 111.64C84.2515 111.475 84.1786 111.29 84.1459 111.095C84.1131 110.9 84.1213 110.701 84.1699 110.51Z" fill="white"/>
</svg>
